<svg width="36" height="36" fill="none" xmlns="http://www.w3.org/2000/svg"><g clip-path="url(#clip0_1_50)"><path d="M26.385 21.39c-.12.124-.213.272-.27.435a1.23 1.23 0 000 .525L27 28.245c.079.46.027.933-.15 1.365-.18.436-.482.812-.87 1.08a2.6 2.6 0 01-1.305.465 2.46 2.46 0 01-1.335-.33l-4.785-2.655a1.05 1.05 0 00-.525-.135 1.11 1.11 0 00-.54.135l-4.755 2.655a2.67 2.67 0 01-1.35.315 2.505 2.505 0 01-2.31-2.895l.96-5.895a1.035 1.035 0 000-.525.99.99 0 00-.255-.435l-4.215-4.245a2.625 2.625 0 01-.645-1.185 2.58 2.58 0 010-1.35 2.61 2.61 0 01.81-1.11 2.579 2.579 0 011.23-.57l5.535-.84a1.21 1.21 0 00.495-.21c.146-.111.264-.255.345-.42l2.4-5.16a2.49 2.49 0 01.915-1.05 2.505 2.505 0 012.685 0c.399.256.716.62.915 1.05l2.415 5.16c.076.168.195.313.345.42.146.109.315.181.495.21l5.535.84c.454.077.878.274 1.23.57.345.303.603.69.75 1.125.12.442.12.908 0 1.35-.108.444-.33.853-.645 1.185l-3.99 4.23z" fill="#1B1B1D"/></g><defs><clipPath id="clip0_1_50"><path fill="#fff" d="M0 0h36v36H0z"/></clipPath></defs></svg>