<svg width="28" height="28" fill="none" xmlns="http://www.w3.org/2000/svg"><path d="M18.143 15.162l-2.345 2.353c-.951.954-2.624.975-3.596 0l-2.345-2.353-8.423 8.45c.314.145.66.232 1.027.232h23.078a2.43 2.43 0 001.026-.232l-8.422-8.45z" fill="#64646A"/><path d="M25.54 4.156H2.46c-.367 0-.712.087-1.026.232l9 9.03.003.001v.002l2.927 2.936c.31.31.961.31 1.272 0l2.926-2.936.002-.002.002-.001 9-9.03a2.434 2.434 0 00-1.027-.232zM.262 5.535A2.43 2.43 0 000 6.617v14.766c0 .39.1.754.262 1.082L8.699 14 .262 5.535zm27.476 0L19.301 14l8.437 8.465A2.42 2.42 0 0028 21.383V6.617c0-.39-.1-.754-.262-1.082z" fill="#64646A"/></svg>