<svg width="26" height="26" fill="none" xmlns="http://www.w3.org/2000/svg"><path d="M20.708 15.975c-.84-.18-1.504.209-2.092.55-.602.35-1.747 1.28-2.404 1.042-3.361-1.384-6.522-4.326-7.89-7.7-.242-.671.683-1.824 1.031-2.433.338-.59.72-1.26.546-2.107-.158-.76-2.193-3.35-2.912-4.058-.475-.467-.961-.725-1.46-.766-1.877-.08-3.973 2.423-4.34 3.022-.921 1.277-.916 2.977.015 5.038 2.244 5.535 10.732 13.89 16.288 16.218 1.026.48 1.963.72 2.806.72.824 0 1.558-.23 2.188-.686.476-.275 3.083-2.474 3.014-4.401-.04-.492-.297-.983-.76-1.458-.702-.727-3.275-2.823-4.03-2.981z" fill="#64646A"/></svg>