<svg width="30" height="30" fill="none" xmlns="http://www.w3.org/2000/svg"><path d="M24.541 9.996c.017.219.017.436.017.654 0 6.656-5.067 14.326-14.325 14.326-2.853 0-5.503-.826-7.733-2.261.405.046.795.062 1.216.062 2.354 0 4.52-.795 6.251-2.15a5.045 5.045 0 01-4.708-3.492c.311.046.623.077.951.077a5.36 5.36 0 001.326-.17A5.034 5.034 0 013.5 12.1v-.063a5.08 5.08 0 002.275.64A5.028 5.028 0 013.53 8.484c0-.935.248-1.793.685-2.54a14.32 14.32 0 0010.382 5.268 5.721 5.721 0 01-.125-1.153 5.033 5.033 0 015.035-5.035 5.02 5.02 0 013.679 1.59 9.946 9.946 0 003.195-1.217 5.026 5.026 0 01-2.214 2.775c1.014-.11 1.997-.39 2.899-.78a10.806 10.806 0 01-2.524 2.604z" fill="#64646A"/></svg>